<?xml version="1.0" standalone="no"?>
<!DOCTYPE svg PUBLIC "-//W3C//DTD SVG 20010904//EN"
 "http://www.w3.org/TR/2001/REC-SVG-20010904/DTD/svg10.dtd">
<svg version="1.0" xmlns="http://www.w3.org/2000/svg"
 width="25.000000pt" height="35.000000pt" viewBox="0 0 25.000000 35.000000"
 preserveAspectRatio="xMidYMid meet">

<g transform="translate(0.000000,35.000000) scale(0.100000,-0.100000)"
fill="#000000" stroke="none">
<path d="M88 334 c-31 -17 -58 -61 -58 -97 0 -13 11 -41 25 -61 20 -29 23 -41
15 -57 -6 -10 -14 -19 -19 -19 -4 0 -17 -18 -29 -39 -18 -32 -20 -40 -7 -44
15 -6 35 19 68 84 16 30 22 35 46 31 56 -8 121 50 121 108 0 34 -28 78 -60 95
-36 19 -67 19 -102 -1z m101 -8 c47 -25 63 -83 37 -135 -35 -66 -137 -66 -172
0 -47 91 44 182 135 135z"/>
<path d="M91 284 c-52 -66 7 -138 84 -104 14 6 8 7 -20 4 -52 -7 -80 19 -70
65 14 66 115 71 115 5 0 -12 -7 -28 -17 -35 -15 -13 -16 -11 -10 21 7 34 6 36
-23 38 -24 2 -33 -3 -42 -23 -15 -32 0 -49 45 -51 41 -3 57 11 57 47 0 61 -80
83 -119 33z m69 -33 c0 -10 -7 -24 -16 -32 -13 -10 -17 -10 -24 1 -11 18 6 50
25 50 8 0 15 -8 15 -19z"/>
</g>
</svg>
